<svg xmlns="http://www.w3.org/2000/svg" viewBox="0 0 100 96.2"><path fill="#d73648" d="M0 49.3h100v46.9H0z"/><path d="M91.2 64.1c-.6.3-2.6.3-3.9.3v-4.7V57c0-.4 0-.6-.9-.6h-1c.2 1.1.2 2.2.2 3.3v5.1c0 .4 0 .7.8.7h4.2a.7.7 0 00.6-.7v-.7zM69.5 61h-1a9.7 9.7 0 01.1 2v1.3a5.5 5.5 0 01-1.9.4 3.4 3.4 0 01-3.5-3.7c0-2 1.2-3.7 3.4-3.7a5 5 0 013 1.2l.3-.8a.6.6 0 00-.4-.8 6.8 6.8 0 00-3-.6c-3 0-5.2 1.5-5.2 4.7s2.2 4.7 5.2 4.7a15 15 0 003.8-.7v-1.2-2.1a.7.7 0 00-.8-.7zm9 11.2h-1.6a1.7 1.7 0 010 .7c-.4.6-.8 1.3-1 2s-1.2 1.8-1.6 2.4c-.9-1.4-1.7-3-2.5-4.5a1.2 1.2 0 00-1.2-.6h-1.8c1.5 2.2 2.8 4.3 4 6.5V83a.6.6 0 00.7.6h1.7c-.2-1.6-.2-3.5-.2-5 1-2 2.3-3.8 3.7-5.8a.6.6 0 000-.4.3.3 0 00-.3-.3zm-24-13.7a1.4 1.4 0 011.5-1.3 2.4 2.4 0 012 1.1 2.6 2.6 0 00.5-1.1c0-.8-1.8-1-2.4-1-1.5 0-3 .8-3 2.6 0 3 4.2 2.2 4.2 4.2a1.5 1.5 0 01-1.6 1.5 3.3 3.3 0 01-2.7-1.3 5.8 5.8 0 00-.2 1.1.8.8 0 00.5.8 4.2 4.2 0 001.9.5c1.8 0 3.5-1 3.5-3 0-2.9-4.2-2-4.2-4.1zm-3.7-2.2h-1.2a7.4 7.4 0 01-1 2.1l-1.3 2-2-3.5a1 1 0 00-1-.5h-1.6c1.3 1.7 2.4 3.5 3.6 5.3V65a.5.5 0 00.5.4h1.3a36.8 36.8 0 01-.2-3.9 36.6 36.6 0 012.2-3.3l1-1.3a.7.7 0 00.1-.3.3.3 0 00-.4-.3zm-10.4 0h-5.2l.2 1.5v3.4l-.1 3.6a.6.6 0 00.7.7H37l-.1-3.2v-1.2a20.2 20.2 0 013.6.3c0-.5.1-1.3-.5-1.3l-3.1.2v-2-1a14.3 14.3 0 013.9.4c0-.5.2-1.3-.5-1.3zM31 60.6V57a.7.7 0 00-.7-.8h-1a38.6 38.6 0 010 4.3v4.1a.7.7 0 00.7.7H31l-.1-5zM38 79.3a8.2 8.2 0 01-3.5.5c-.4 0-.4-.2-.5-.6v-3.3a12.4 12.4 0 013.5.3v-.7c0-.5-.3-.7-1-.7L34 75v-1.8-1.6c2.7 0 3.4.2 3.8.4v-.6a.9.9 0 00-.8-.9h-5.2a3.3 3.3 0 01.3 1.5v5l-.1 3c0 .6 0 .9.6.9h4.5a.7.7 0 00.9-.7v-.8zm-15.6-9a12.6 12.6 0 00-5.6-1.3c-6.3 0-10.4 5-10.4 11.3 0 6 4.5 9.9 10.4 9.9a11 11 0 006.1-1.8l-.2-2a7.5 7.5 0 01-4.7 2c-5.2 0-8.7-4.3-8.7-9.3 0-4.3 2.5-8.5 7.2-8.5a6.6 6.6 0 014.3 1.5 4.2 4.2 0 011.4 2.3 6.3 6.3 0 001.2-2.7 1.6 1.6 0 00-1-1.4zm55.5-14c-3 0-5 1.6-5 4.7 0 2.9 2.3 4.6 5 4.6S83 63.9 83 61s-2.3-4.7-5-4.7zm0 8.4c-2 0-3.2-1.8-3.2-3.7s1.1-3.8 3.2-3.8 3.2 1.8 3.2 3.8c0 2.1-.8 3.7-3.2 3.7zm9 5.7h-5a2.5 2.5 0 01.3 1.2l.2 4.6h-4.9a2.8 2.8 0 01.4 1.2l.2 5c0 2 0 4.2-.2 6.4a.6.6 0 00.7.5h3.8c4 0 7.1-2.2 7.3-6.3a6.2 6.2 0 004.4-6.3c0-4.5-3-6.3-7.1-6.3zm2.8 11.2c-.3-3.2-2.3-4.7-5.2-5.2l.1-4.9a9 9 0 011.4-.1c3.4 0 5.7 2 5.7 5.5a5.5 5.5 0 01-2 4.7zm-2.8.8h-1.6a.6.6 0 01-.7-.5 66 66 0 01-.1-4.1 5 5 0 013 4.6zm-4.3 5.9H81a.6.6 0 01-.7-.6l-.1-4.5c0-2 0-4 .2-5.9a9 9 0 011.3 0 6.3 6.3 0 01.7 0l-.1 5.6a.6.6 0 00.6.6h4.5c-.2 2.7-1.7 4.8-4.8 4.8zM60 70.5h-6.2c.4.5.5 1.4.6 3.3l.1 4.2v5.2l-.2 2.7a.7.7 0 00.8.7h4.7c5.2 0 9.1-2.9 9.1-8.3s-3.7-7.8-8.9-7.8zm0 14.8h-2a.7.7 0 01-.8-.6l-.1-1.7v-4l.1-7.1a10.6 10.6 0 011.8-.2c4.2 0 7 2.4 7 6.7.1 4-1.8 6.9-6 6.9zm-12.6-5a5.6 5.6 0 004.3-5.3c0-3.4-3-4.6-6-4.6h-5.8a4.8 4.8 0 01.3 1.9v6c0 4.5-.2 7.1-.2 8 0 .3.2.4.5.4h3a1.8 1.8 0 01-.3-1 36.7 36.7 0 01-.4-4.8h2a78 78 0 003 4.4c1.8 2.3 4.2 5 7 5A20.5 20.5 0 0057 90c-3.3-1.1-7.6-6.7-9.5-9.7zm-3-.6h-1.6v-2.8c0-1.7 0-3.7.2-5.3h1.6c2.4 0 4.3 1.2 4.3 3.8a4.2 4.2 0 01-4.4 4.3zM23.3 61.6a2.8 2.8 0 002.3-2.7c0-2-1.7-2.5-3.3-2.5H18.9a1.3 1.3 0 01.2.6v7.8a.6.6 0 00.7.6H21a26.2 26.2 0 01-.2-3.5h1a32 32 0 002.1 3.2 3 3 0 002.7 1.3h.4a28.9 28.9 0 01-3.8-4.8zm-2-.5h-.5v-1-3h.8a2 2 0 012.4 2c0 1.6-1.4 2-2.6 2zm-8-4.7H10a4.9 4.9 0 01.2 1.7v6.6a.6.6 0 00.7.8h1.1v-3.6h.8c1.8 0 3.8-.9 3.8-3 0-1.9-1.7-2.4-3.3-2.5zm-.7 4.8h-.7v-4h.9c1.2 0 2 .5 2 1.9a2 2 0 01-2.2 2zM31.8 84l-4.9-11.1a.8.8 0 00-.8-.7h-.3l-5.6 12a1.1 1.1 0 00-.2.5.4.4 0 00.5.3h1.2a1 1 0 010-.3 2 2 0 01.2-.7l1.2-2.9h4.8l1.3 3.3a.8.8 0 00.8.6h2.4a2.8 2.8 0 01-.6-1zm-8.2-4l2-4.7 1.9 4.7h-4z" fill="#fff"/><path fill="#d73648" d="M0 0h100v46.9H0z"/><path d="M93.3 5.8h-9.6a68.6 68.6 0 01.3 9.4l-.3 9.6a.9.9 0 001 1h2.5a4.3 4.3 0 01-.3-1.4c-.2-3-.2-5.8-.2-8.7l1.4-.1a13 13 0 014.6.5 2.9 2.9 0 00.3-1 1.1 1.1 0 00-1.3-.9h-5l.1-7h1.6c1.4 0 5 0 6 .7a3.4 3.4 0 00.2-1 1.1 1.1 0 00-1.3-1zM81 6.8h-8.4c.5.9.5 6.7.5 8l-.3 7.4a.8.8 0 00.8 1H76a12 12 0 01-.4-3.3v-4.7L77 15a9.6 9.6 0 013.8.5l.1-1a.8.8 0 00-1-.8h-4.4l.2-5.5h1.6a13.6 13.6 0 015 .6c0-1.1-.2-2-1.4-2zm-11.8 8.5l.1-4V9a.6.6 0 00-.6-.5h-2.3a38.8 38.8 0 01.3 6.2v5.7a.7.7 0 00.7.8h2.2a38.6 38.6 0 01-.4-6zm22.2 15.4h-1.2a8 8 0 01-1 2.1l-1.2 2-2.2-3.6a1 1 0 00-1-.5h-1.5c1.3 1.7 2.5 3.5 3.6 5.4v3.2a.5.5 0 00.6.5h1.2l-.1-4a42.8 42.8 0 013.1-4.5.5.5 0 000-.3.3.3 0 00-.3-.3zm-8.8 0h-6.7a.9.9 0 00-1 .8v.5a20.1 20.1 0 013-.2l.1 3.3v4a.6.6 0 00.6.7h1.2a42.6 42.6 0 01-.2-4.6v-3.3l2.4.1a.7.7 0 00.6-.8v-.5zm-9.1 4v-3.3a.7.7 0 00-.7-.7h-1a39.3 39.3 0 010 4.2V39a.7.7 0 00.7.8h1.1l-.1-5zm-8.3-2a1.4 1.4 0 011.5-1.2 2.4 2.4 0 012 1.1 2.6 2.6 0 00.5-1.1c0-.8-1.8-1-2.3-1-1.6 0-3.2.9-3.2 2.6 0 3 4.3 2.2 4.3 4.2a1.5 1.5 0 01-1.6 1.6 3.3 3.3 0 01-2.6-1.4 5.8 5.8 0 00-.3 1.1.8.8 0 00.5.8 4.2 4.2 0 002 .5c1.8 0 3.5-1 3.5-3 0-2.9-4.3-2-4.3-4.1zm-13 5.7a7.2 7.2 0 01-2.8.4h-.6c-.4 0-.4-.2-.4-.5v-2.8a14 14 0 013.3.3V35a.6.6 0 00-.7-.5h-2.6V33v-1.4a13.2 13.2 0 013.6.3c0-.5 0-1.2-.7-1.2h-4.8a1.3 1.3 0 01.2.5V39.1a.5.5 0 00.5.6h4.2a.6.6 0 00.7-.6v-.7zm-7.6-7.7h-1.2A2.9 2.9 0 0143 32l-2.4 5.4-1.8-4.1-.8-2a1 1 0 00-1.2-.7h-1.2c1.5 3 2.9 6 4.1 9.1H41c1.2-2.9 2.6-5.7 3.9-8.5a.3.3 0 000-.2.3.3 0 00-.3-.4zm-22.2-24a12.5 12.5 0 00-5.5-1.3c-6.3 0-10.5 5.1-10.5 11.3 0 6 4.6 9.9 10.4 9.9a11 11 0 006.2-1.8l-.2-2a7.3 7.3 0 01-4.8 2c-5.1 0-8.6-4.3-8.6-9.3 0-4.2 2.5-8.4 7.2-8.4a6.6 6.6 0 014.3 1.5 4.2 4.2 0 011.4 2.2 6.5 6.5 0 001.2-2.7 1.6 1.6 0 00-1.1-1.4zm11.4 28.1l.1-3.3a.6.6 0 00-.7-.8H32a38.6 38.6 0 01.1 4.2V39a.7.7 0 00.7.8H34l-.2-5zm-4.9-4H28v6.1l-6.3-6.3H21v6.6l-.2 2.2a.4.4 0 00.4.4h1a20 20 0 01-.1-3v-3.2c2.2 2 4.3 4 6.4 6.3h.7v-4.5V33l.1-1.8a.4.4 0 00-.4-.5zm-11.2 0h-.9a15.4 15.4 0 01.2 2.4v2.3c0 1.9-.6 3.3-2.7 3.3-2.5 0-2.8-1.5-2.8-3.6l.2-4a.4.4 0 00-.5-.5H9.8l.1 3.2v2.3c0 2.7 1.5 3.7 4.1 3.7s4-1.3 4.1-3.8l.2-4.9a.5.5 0 00-.6-.5zM55.2 6.8l-6.1.1a65 65 0 01.7 7.6l-.1 5-.1 2.9a.7.7 0 00.8.6H55c5.2 0 9.1-2.8 9.1-8.3s-3.6-7.9-8.8-7.9zm0 14.8h-2a.7.7 0 01-.8-.6 12.1 12.1 0 010-1.6l-.1-4c0-2.4 0-4.8.2-7.2a11.2 11.2 0 011.7-.1c4.2 0 7 2.3 7 6.7.1 3.9-1.8 6.9-6 6.9zM59 36a2.8 2.8 0 002.2-2.7c0-2-1.7-2.5-3.3-2.5h-3.2a1.1 1.1 0 01.1.6V39.2a.5.5 0 00.7.5h1.2a26.4 26.4 0 01-.2-3.5h1l2.2 3.3a3 3 0 002.7 1.3h.5a31 31 0 01-3.9-5zm-2-.5h-.5v-.9-3h.9a2 2 0 012.3 2c0 1.5-1.4 2-2.7 2zm-24.2-15L27.9 9.3a.8.8 0 00-.8-.7h-.3l-5.7 12a1.2 1.2 0 00-.1.5c0 .2.3.3.5.3h1.2a1 1 0 010-.3 2 2 0 01.1-.7l1.2-2.9h4.8l1.3 3.3a.8.8 0 00.9.6h2.4a2.8 2.8 0 01-.6-1zm-8.3-4l2.1-4.7 1.9 4.7h-4zm17.8.4a5.6 5.6 0 004.2-5.4c0-3.3-3-4.6-6-4.6h-5.8a4.8 4.8 0 01.4 2v6c0 4.5-.2 7-.2 7.9 0 .3.1.4.4.4h3a1.9 1.9 0 01-.2-.9 36.7 36.7 0 01-.3-4.9h2a78 78 0 003 4.4c1.8 2.3 4.2 5 7 5a20.5 20.5 0 002-.1c-3.2-1.2-7.5-6.8-9.5-9.8zm-3-.7h-1.6v-2.8c0-1.6 0-3.6.2-5.2l1.6-.1c2.4 0 4.3 1.3 4.3 3.9a4.2 4.2 0 01-4.4 4.3zM0 46.9h100v2.4H0z" fill="#fff"/></svg>
