<svg xmlns="http://www.w3.org/2000/svg" width="114.823mm" height="30.742672mm" viewBox="0 0 114.823 30.742671">
  <path d="M14.223114 27.2860147L3.01853925 21.4302565V9.84468175l3.90489713 2.0408194v-.71049443l.45896388-.24024166L3.6478948 8.98319844 14.7325251 3.19023468l3.7341527 1.95156662 1.34514163.70343887 6.0049832 3.13795827L14.7325251 14.7761622l-5.262386-2.7502555-.67944998.35524722v.47977776l5.43242488 2.83950828z" fill="#fff"/>
  <path d="M14.732455 14.7761997l-5.262386-2.7502555 11.0818081-5.79119987-.74012777-.38946666 6.0049832 3.13795827zm-.5094111 12.5098525L3.01846915 21.430294V9.84471925l3.90454436 2.0408194v6.99734707l1.86760551.95038331V12.8609692l5.43242488 2.83915549zm.5094111-24.09578002l3.7341527 1.95156662-6.0623242 3.16834584-5.02195334 2.62461792-3.7341527-1.95156662zm12.22304417 5.19818044L14.732455 1.99999998 2.50941083 8.38845262l-.5094111.26564166v13.43448304l12.22304417 6.38809986.5094111.26599443.50905832-.26599443 12.22339695-6.38809986V8.65409428z" fill="#1f5031"/>
  <path d="M15.995436 19.6737397l1.5980833-.83502498v1.47319997l-1.5980833.83502498zM18.640915 18.2629477v1.47319997l7.42456095-3.87984992v-1.47355274zM18.640915 23.6993227v1.47319997l7.42456095-3.8802027v-1.47319996zM18.640915 20.9811367v1.47319997l7.42456095-3.8802027v-1.47319996zM15.995436 22.3918947l1.5980833-.83502498v1.47319997l-1.5980833.83502498z" fill="#fff"/>
  <path d="M15.995436 19.6737397l1.5980833-.83502498v1.47319997l-1.5980833.83502498zM15.995436 25.1100807l1.5980833-.83502498v1.47319997l-1.5980833.83502498zM15.995436 22.3918947l1.5980833-.83502498v1.47319997l-1.5980833.83502498z" fill="#fff"/>
  <path d="M37.788917 19.5586647c.75600276 0 1.45873608-.15769166 2.10819995-.47413332.64875832-.3157361 1.21602498-.73377776 1.70179997-1.25306664.48506943-.5189361.86606942-1.11477776 1.14299997-1.78646663.27657777-.6713361.41486666-1.35748886.41486666-2.05739995 0-.64311388-.10759722-1.21919998-.32173333-1.72684719-.21484166-.50835276-.50553054-.94015276-.87206665-1.29539997-.36688888-.35595277-.79904164-.6268861-1.29539997-.81315276-.49706387-.18591388-1.02728886-.2794-1.5917333-.2794-.75670831 0-1.46226385.15839723-2.11666662.4744861-.65475554.31573611-1.22202219.73377777-1.70179996 1.25271387-.48013054.51928888-.85795553 1.1123083-1.1345333 1.77799996-.27693056.6663972-.41486666 1.35466664-.41486666 2.06586662 0 .64346665.10689166 1.21919997.32173332 1.72719996.2141361.508.504825.93979998.87206665 1.29539997.3665361.3556.7983361.6268861 1.29539997.81279999.4967111.18626666 1.02693609.27939999 1.5917333.27939999m-.1524 1.49048608c-.77893331 0-1.50459719-.13299722-2.17593328-.39793333-.67168888-.26528888-1.25906386-.6409972-1.76106663-1.12641942-.50270832-.4854222-.8949972-1.06362497-1.17686664-1.73566662-.282575-.6713361-.42333332-1.41358053-.42333332-2.22673329 0-.92533609.17180277-1.81998051.51646665-2.68393327.3443111-.86359998.82973332-1.62806941 1.45626664-2.29411384.62653331-.66604443 1.38006663-1.1997972 2.26059995-1.60055274.8805333-.40040277 1.8566694-.60113332 2.9294666-.60113332.76764443 0 1.48731108.13299722 2.15899995.39793332.6713361.26528888 1.25553608.6409972 1.75259996 1.12641942.49635832.48542221.88582498 1.06397775 1.16839998 1.73566663.28186943.67168887.42333332 1.41358052.42333332 2.2263805 0 .92568887-.17215555 1.8203333-.51646666 2.68393328-.34466388.86395276-.82973331 1.62877496-1.45626663 2.29446662-.62653332.6663972-1.3775972 1.1997972-2.25213328 1.60055274-.87524165.40040277-1.84326385.60113332-2.9040666.60113332M44.748376 20.7778647l1.45626663-8.29733315h1.4901333l-.23706666 1.35466664h.06773334c.25964443-.47378055.63499998-.86359998 1.12606664-1.16839998.49106665-.30444721 1.0188222-.45719999 1.58326663-.45719999.25964444 0 .45966943.02010834.60113332.05926667.1411111.03986389.28469166.09913055.43179999.1778l-.66039999 1.47355274c-.14675555-.04515556-.28539721-.0762-.41486665-.09348611-.130175-.01693333-.29068889-.02504722-.4826-.02504722-.30479999 0-.60113331.06208889-.88899997.18697222-.28786666.12488333-.55033332.29774443-.78739999.5189361-.23706666.22119166-.4377972.48789165-.60113332.7997472-.16368888.31220833-.27939999.6554611-.34713332 1.02940553l-.77893332 4.44111935zM54.857646 13.6320697c-.42933055 0-.83255554.08748889-1.2107333.26246666-.37817778.17497777-.70837777.41804166-.99059998.72813332-.282575.31044444-.50270833.67486387-.66039999 1.09219997-.15839722.41768888-.23706666.86924443-.23706666 1.35466664 0 .80186387.19473333 1.4283972.58419999 1.87959996.38946665.45190832.9567333.67733332 1.70179996.67733332.44026665 0 .85231109-.09877778 1.2361333-.29633333.38382222-.19720277.71366943-.45966943.99059998-.78739998.27657777-.32737777.4935361-.70273332.65193332-1.12571387.15804444-.4236861.23706666-.86113053.23706666-1.31268608 0-.81279998-.22013333-1.42804441-.66039998-1.84573329-.44026666-.4173361-.98813054-.62653332-1.6425333-.62653332m-1.25306664 7.41679984c-.48542221 0-.93697776-.09031111-1.35466664-.27093333-.41768888-.18062222-.78175553-.43709166-1.09219997-.77046665-.31079722-.33266944-.55315555-.73906943-.72813332-1.21919997-.17533055-.479425-.26246666-1.01846943-.26246666-1.6171333 0-.64346665.12100278-1.2615333.36406666-1.85419996.2427111-.59266665.57820276-1.12006942 1.00753331-1.58326663.42897777-.46249166.93697776-.83220276 1.52399997-1.10878053.58666943-.27693055 1.22484441-.41521944 1.91346662-.41521944.56444443 0 1.07526664.13581944 1.53246663.4064.4572.27093332.80433332.60959998 1.04139998 1.01599997h.06773333l.13546667-1.15146664.67733331-3.82693325h1.55786664l-2.13359996 12.1242664h-1.4901333l.2032-1.15146664h-.06773333c-.282575.38382221-.65757777.71684443-1.12606664.99906664-.46848888.28222222-1.05833331.42333333-1.7695333.42333333M66.134996 15.6302027v-.18626666c0-.23706666-.04233333-.46566666-.127-.68579999-.08466666-.22013333-.21448888-.41204443-.38946666-.57573332-.17497777-.1633361-.39228888-.29633332-.65193331-.39793332-.25964444-.1016-.56479721-.1524-.91439998-.1524-.67733332 0-1.25588887.18344444-1.73566663.55033332-.48013055.36724166-.8156222.84984165-1.00753331 1.44779997zm.96519998 3.1834666c-.44026666.73377776-1.00471109 1.2901083-1.6933333 1.6679333-.6886222.37817776-1.42804441.56726665-2.21826662.56726665-.60959998 0-1.14864441-.1016-1.6171333-.3048-.46848887-.2032-.86359997-.47660276-1.1853333-.82126664-.32173333-.3443111-.56444443-.74506665-.72813332-1.20226664-.16368888-.4572-.24553333-.94544443-.24553333-1.4647333 0-.64346666.11006667-1.26682498.3302-1.8711333.22013333-.60360276.53904443-1.14299997.95673331-1.6171333.4173361-.47413332.92286665-.85195831 1.5155333-1.1345333.59266665-.28222222 1.25588886-.42333333 1.98966662-.42333333.57573332 0 1.08373331.09066389 1.52399997.27093333.44026666.18062222.80715554.42897777 1.10066664.74506665.2935111.31608888.51364443.68297776.66039999 1.10066664.14640277.41768888.22013333.8695972.22013333 1.35466664 0 .2032-.0112889.41768888-.03386667.64346665-.02257778.22577777-.06208889.42333333-.11853333.59266665h-6.53626652c-.0112889.11324167-.01693334.2032-.01693334.27093333v.22013333c0 .37253333.06491111.6999111.19473333.98213331.12982222.28222222.30197777.51364444.51646666.69426665.21448888.180975.45719999.31608889.72813331.4064.27093333.0903111.5475111.13546666.82973332.13546666.56444443 0 1.06926942-.13546667 1.5155333-.4064.4459111-.27093332.8156222-.63182498 1.1091333-1.0837333zM67.862196 20.7778647l1.45626663-8.29733315h1.4901333l-.23706666 1.35466664h.06773334c.25964443-.47378055.63499998-.86359998 1.12606664-1.16839998.49106665-.30444721 1.01846942-.45719999 1.58326663-.45719999.25964444 0 .45966943.02010834.60113332.05926667.14075833.03986389.28469166.09913055.43144721.1778l-.6600472 1.47355274c-.14710834-.04515556-.28504444-.0762-.41486666-.09348611-.130175-.01693333-.29104166-.02504722-.48295277-.02504722-.3048 0-.60078054.06208889-.8886472.18697222-.28786666.12488333-.55033332.29774443-.78739999.5189361-.23706666.22119166-.4377972.48789165-.60113332.7997472-.16368888.31220833-.27939999.6554611-.34713332 1.02940553l-.77893332 4.44111935zM74.973916 8.6535647h1.69368607l1.57479997 9.83861923h.06738055l5.19853322-9.83861923h1.7614194l-6.55355263 12.1242664h-1.62559996zM86.357876 11.5870527c-.3048 0-.56479721-.10724444-.77893332-.32138055-.21448888-.21484166-.32173332-.4744861-.32173332-.77893331 0-.3048.10724444-.56479721.32173332-.77893332.21413611-.21448888.47413333-.32173333.77893332-.32173333.30444722 0 .56444443.10724445.77893332.32173333.2141361.2141361.32173332.47413332.32173332.77893332 0 .30444721-.10759722.56409165-.32173332.77893331-.21448889.2141361-.4744861.32138055-.77893332.32138055m-2.71391938 9.19091924l1.45626663-8.29733315h1.55786663l-1.45626663 8.29733315zM93.668386 15.6302027v-.18626666c0-.23706666-.04233333-.46566666-.127-.68579999-.08466666-.22013333-.21448888-.41204443-.38946666-.57573332-.17497777-.1633361-.39228888-.29633332-.65193331-.39793332-.25999722-.1016-.56444444-.1524-.91439998-.1524-.67733332 0-1.25588887.18344444-1.73566663.55033332-.48013055.36724166-.8156222.84984165-1.00753331 1.44779997zm.96519998 3.1834666c-.44026666.73377776-1.00471109 1.2901083-1.69298052 1.6679333-.68932776.37817776-1.42839719.56726665-2.2186194.56726665-.60959998 0-1.14864441-.1016-1.6171333-.3048-.46848887-.2032-.86359997-.47660276-1.1853333-.82126664-.32173333-.3443111-.56444443-.74506665-.72813332-1.20226664-.16368888-.4572-.24553333-.94544443-.24553333-1.4647333 0-.64346666.11006667-1.26682498.3302-1.8711333.22013333-.60360276.53904443-1.14299997.95673331-1.6171333.4173361-.47413332.92286665-.85195831 1.5155333-1.1345333.59266665-.28222222 1.25553608-.42333333 1.98966662-.42333333.57573332 0 1.08408609.09066389 1.52399997.27093333.44026666.18062222.80715554.42897777 1.10066664.74506665.2935111.31608888.51364443.68297776.66039999 1.10066664.14675555.41768888.22013333.8695972.22013333 1.35466664 0 .2032-.0112889.41768888-.03386667.64346665-.02257778.22577777-.06244167.42333333-.11853333.59266665h-6.53626652c-.0112889.11324167-.01693334.2032-.01693334.27093333v.22013333c0 .37253333.06491111.6999111.19473333.98213331.12982222.28222222.30197777.51364444.51646666.69426665.21448888.180975.45755277.31608889.72813331.4064.27093333.0903111.5475111.13546666.82973332.13546666.56444443 0 1.0696222-.13546667 1.51588608-.4064.44555832-.27093332.81491665-.63182498 1.10878053-1.0837333zM102.693816 20.7778647l-.93133331-6.3669332-3.1834666 6.3669332h-1.57479996l-1.20226664-8.29733315h1.5917333l.72813331 6.2653332h.01693333l3.16653327-6.2653332h1.60866663l.93133331 6.2653332h.01693333l2.94639994-6.2653332h1.62524719l-4.1483138 8.29733315zM6.923119 18.8827417l1.86760551.95038331V12.3810474l1.5770782-.82420776 10.1838271-5.32223933-2.08491662-1.09255275L6.923119 11.23451965z" fill="#1f5031"/>
  <path d="M7.011313 18.8286607l1.69121663.86077776v-7.3617665L20.36148215 6.2344943l-1.8947694-.99306942-2.35048843 1.24068026L7.011313 11.28803587zm1.86760551 1.14864442l-2.0439944-1.04034164v-7.7554665l11.63143586-6.13903875 2.27541662 1.19238886L8.8789185 12.43456362z" fill="#1f5031"/>
  <path d="M109.365606 14.3012537q0-.492185.2266-.91371.22903-.421525.63106-.662744.40447-.243656.87229-.243656t.86985.243656q.40204.241219.62864.662744.22903.421525.22903.91371 0 .480002-.21929.89909-.21929.419088-.62376.674927-.40203.253402-.88447.253402-.48 0-.88447-.250965-.40203-.253403-.62376-.672491-.22172-.419088-.22172-.903963zm.2802 0q0 .419088.19492.777262.19493.355738.52874.557972.33624.202235.72609.202235.39229 0 .72853-.204671.33625-.207108.5263-.560409.19249-.353301.19249-.772389 0-.416652-.19249-.767516-.19005-.353301-.5263-.555536-.33624-.204671-.72853-.204671-.38985 0-.72609.202235-.33625.199797-.53117.555535-.19249.355738-.19249.769953zm1.09158.182742v.823557h-.34356v-2.068639h.67249q.3728 0 .57747.160813.20711.158376.20711.462946 0 .299697-.31188.458073.29726.121828.29969.497058v.14863q0 .209545.0414.302134v.03899h-.3533q-.0341-.08772-.0341-.31188 0-.2266-.007-.268021-.039-.23391-.31919-.243656zm0-.31188h.3801q.17543-.0049.28264-.08528.10721-.08041.10721-.211981 0-.177869-.095-.250966-.095-.07553-.33869-.07553h-.33624z" aria-label="®" style="fill:#1f5031;fill-opacity:1;stroke-width:0.12475182" font-weight="400" font-size="4.9900732" font-family="Roboto" letter-spacing="0" word-spacing="0" fill="#1f5031" stroke-width=".12475182"/>
</svg>
